<svg width="69" height="69" viewBox="0 0 69 69" fill="none" xmlns="http://www.w3.org/2000/svg">
<g clip-path="url(#clip0_84_9)">
<path d="M56.0625 17.25C55.9816 17.25 55.9143 17.277 55.8469 17.277C55.9951 16.5762 56.0625 15.8484 56.0625 15.0938C56.0625 9.13711 51.2379 4.3125 45.2812 4.3125C41.966 4.3125 39.0416 5.83535 37.0605 8.19375C34.5539 3.34219 29.5541 0 23.7188 0C15.3768 0 8.625 6.75176 8.625 15.0938C8.625 16.0775 8.73281 17.0209 8.90801 17.9508C3.74648 19.6488 0 24.46 0 30.1875C0 37.3301 5.79492 43.125 12.9375 43.125H56.0625C63.2051 43.125 69 37.3301 69 30.1875C69 23.0449 63.2051 17.25 56.0625 17.25ZM11.8594 50.4293C10.1344 56.4129 6.46875 58.0301 6.46875 62.2482C6.46875 65.9812 9.36621 69 12.9375 69C16.5088 69 19.4062 65.9812 19.4062 62.2482C19.4062 58.0166 15.7406 56.4398 14.0156 50.4293C13.7191 49.3377 12.1963 49.2838 11.8594 50.4293ZM33.4219 50.4293C31.6969 56.4129 28.0312 58.0301 28.0312 62.2482C28.0312 65.9812 30.9287 69 34.5 69C38.0713 69 40.9688 65.9812 40.9688 62.2482C40.9688 58.0166 37.3031 56.4398 35.5781 50.4293C35.2816 49.3377 33.7588 49.2838 33.4219 50.4293ZM54.9844 50.4293C53.2594 56.4129 49.5938 58.0301 49.5938 62.2482C49.5938 65.9812 52.4912 69 56.0625 69C59.6338 69 62.5312 65.9812 62.5312 62.2482C62.5312 58.0166 58.8656 56.4398 57.1406 50.4293C56.8441 49.3377 55.3213 49.2838 54.9844 50.4293Z" fill="url(#paint0_linear_84_9)"/>
</g>
<defs>
<linearGradient id="paint0_linear_84_9" x1="34.5" y1="0" x2="34.5" y2="69" gradientUnits="userSpaceOnUse">
<stop stop-color="white"/>
<stop offset="1" stop-color="#E4E4E4" stop-opacity="0.32"/>
</linearGradient>
<clipPath id="clip0_84_9">
<rect width="69" height="69" fill="white"/>
</clipPath>
</defs>
</svg>
