<svg width="20" height="20" viewBox="0 0 20 20" fill="none" xmlns="http://www.w3.org/2000/svg">
<path d="M10.25 1C6.79961 1 4 3.51992 4 6.625C4 11.625 10.25 18.5 10.25 18.5C10.25 18.5 16.5 11.625 16.5 6.625C16.5 3.51992 13.7004 1 10.25 1ZM10.25 9.75C9.75555 9.75 9.2722 9.60338 8.86107 9.32867C8.44995 9.05397 8.12952 8.66352 7.9403 8.20671C7.75108 7.74989 7.70157 7.24723 7.79804 6.76227C7.8945 6.27732 8.1326 5.83186 8.48223 5.48223C8.83186 5.1326 9.27732 4.8945 9.76227 4.79804C10.2472 4.70157 10.7499 4.75108 11.2067 4.9403C11.6635 5.12952 12.054 5.44995 12.3287 5.86107C12.6034 6.2722 12.75 6.75555 12.75 7.25C12.7493 7.91282 12.4857 8.54828 12.017 9.01697C11.5483 9.48565 10.9128 9.74928 10.25 9.75Z" fill="url(#paint0_linear_63_110)"/>
<defs>
<linearGradient id="paint0_linear_63_110" x1="10.25" y1="1" x2="10.25" y2="18.5" gradientUnits="userSpaceOnUse">
<stop stop-color="white"/>
<stop offset="1" stop-color="#E4E4E4" stop-opacity="0.32"/>
</linearGradient>
</defs>
</svg>
