<svg width="24" height="24" viewBox="0 0 24 24" fill="none" xmlns="http://www.w3.org/2000/svg">
<path d="M9.62601 17.465L10.774 15.91C11.517 14.905 11.888 14.402 12.234 14.509C12.58 14.615 12.58 15.231 12.58 16.464V16.58C12.58 17.025 12.58 17.247 12.722 17.386L12.73 17.394C12.875 17.53 13.106 17.53 13.568 17.53C14.4 17.53 14.816 17.53 14.958 17.782C14.9601 17.7863 14.9621 17.7907 14.964 17.795C15.097 18.052 14.856 18.378 14.374 19.03L13.226 20.585C12.483 21.59 12.112 22.092 11.766 21.986C11.42 21.88 11.42 21.263 11.42 20.031V19.915C11.42 19.47 11.42 19.248 11.278 19.109L11.27 19.101C11.125 18.965 10.894 18.965 10.432 18.965C9.60001 18.965 9.18401 18.965 9.04201 18.712C9.03997 18.708 9.03797 18.704 9.03601 18.7C8.90301 18.443 9.14401 18.117 9.62601 17.465Z" fill="url(#paint0_linear_84_3)"/>
<path d="M7.578 18.011C7.637 17.804 7.718 17.636 7.777 17.525C7.934 17.229 8.175 16.903 8.377 16.629L9.618 14.949C9.945 14.507 10.274 14.062 10.572 13.752C10.79 13.525 11.569 12.734 12.674 13.073C13.812 13.423 13.982 14.553 14.024 14.863C14.068 15.197 14.078 15.608 14.08 16.032C14.2973 16.0337 14.5144 16.0481 14.73 16.075C15.064 16.122 15.837 16.278 16.267 17.052L16.296 17.105C16.461 17.424 16.511 17.732 16.5 18.007C19.557 17.896 22 15.41 22 12.36C22 9.887 20.393 7.784 18.155 7.018C17.837 4.195 15.415 2 12.476 2C9.32 2 6.762 4.53 6.762 7.651C6.762 8.341 6.887 9.003 7.116 9.614C6.84253 9.56084 6.56459 9.53405 6.286 9.534C3.919 9.535 2 11.433 2 13.774C2 16.114 3.919 18.012 6.286 18.012L7.578 18.011Z" fill="url(#paint1_linear_84_3)"/>
<defs>
<linearGradient id="paint0_linear_84_3" x1="12" y1="14.4949" x2="12" y2="22" gradientUnits="userSpaceOnUse">
<stop stop-color="white"/>
<stop offset="1" stop-color="#E4E4E4" stop-opacity="0.32"/>
</linearGradient>
<linearGradient id="paint1_linear_84_3" x1="12" y1="2" x2="12" y2="18.012" gradientUnits="userSpaceOnUse">
<stop stop-color="white"/>
<stop offset="1" stop-color="#E4E4E4" stop-opacity="0.32"/>
</linearGradient>
</defs>
</svg>
